<svg width="19" height="19" viewBox="0 0 19 19" fill="none" xmlns="http://www.w3.org/2000/svg">
<path fill-rule="evenodd" clip-rule="evenodd" d="M1.18971 8.50715C1.30839 8.38841 1.44931 8.29421 1.6044 8.22994C1.7595 8.16568 1.92573 8.1326 2.09362 8.1326C2.2615 8.1326 2.42774 8.16568 2.58283 8.22994C2.73793 8.29421 2.87884 8.38841 2.99752 8.50715L9.76152 15.2739L16.5262 8.50715C16.6425 8.37803 16.7838 8.27394 16.9416 8.2012C17.0994 8.12846 17.2703 8.0886 17.444 8.08406C17.6177 8.07951 17.7905 8.11037 17.9518 8.17475C18.1132 8.23913 18.2598 8.33569 18.3826 8.45854C18.5055 8.5814 18.602 8.72797 18.6664 8.88935C18.7308 9.05072 18.7617 9.22351 18.7571 9.39719C18.7526 9.57087 18.7127 9.74181 18.64 9.8996C18.5672 10.0574 18.4631 10.1987 18.334 10.315L10.671 17.9856C10.5523 18.1044 10.4114 18.1986 10.2563 18.2628C10.1012 18.3271 9.93497 18.3602 9.76709 18.3602C9.5992 18.3602 9.43297 18.3271 9.27787 18.2628C9.12278 18.1986 8.98186 18.1044 8.86318 17.9856L1.19388 10.3164C1.07514 10.1977 0.980946 10.0568 0.91668 9.90166C0.852414 9.74657 0.819336 9.58033 0.819336 9.41244C0.819336 9.24456 0.852414 9.07832 0.91668 8.92323C0.980946 8.76813 1.07514 8.62722 1.19388 8.50854L1.18971 8.50715Z" fill="white"/>
<path fill-rule="evenodd" clip-rule="evenodd" d="M9.76305 0.465088C9.93088 0.465088 10.0971 0.498144 10.2521 0.562369C10.4072 0.626594 10.5481 0.720729 10.6667 0.839401C10.7854 0.958073 10.8795 1.09896 10.9438 1.25401C11.008 1.40906 11.041 1.57525 11.041 1.74307V14.525C11.041 14.864 10.9064 15.1892 10.6666 15.4289C10.4269 15.6687 10.1017 15.8033 9.76271 15.8033C9.42367 15.8033 9.09852 15.6687 8.85879 15.4289C8.61906 15.1892 8.48438 14.864 8.48438 14.525V1.74307C8.48437 1.57519 8.51745 1.40895 8.58172 1.25385C8.64599 1.09875 8.74019 0.957836 8.85893 0.839155C8.97768 0.720474 9.11865 0.626353 9.27378 0.562169C9.42891 0.497986 9.59517 0.464997 9.76305 0.465088Z" fill="white"/>
</svg>
